<svg xmlns="http://www.w3.org/2000/svg" width="343.454" height="194.957" viewBox="0 0 343.454 194.957">
  <g id="Groupe_95" data-name="Groupe 95" transform="translate(89.003 1.002)">
    <path id="Tracé_379" data-name="Tracé 379" d="M347.885,293.305c-.312.228-.632.447-.955.664a32.041,32.041,0,0,1-3.726,2.15c-6.77,3.376-15.11,5.024-23.237,6.144-18.224,2.516-36.832,3-55.362,3.483-50.061,1.3-100.254,2.6-150.188-.4-19.728-1.183-39.9-3.174-57.777-9.235q-3.841-1.3-7.538-2.869a63.211,63.211,0,0,1-13.745-7.769,28.559,28.559,0,0,1-8.583-9.973c-3.78-7.855-1.781-16.677,2.534-24.374a75.336,75.336,0,0,1,6.06-8.946c3.325-4.335,6.992-8.533,10.346-12.862,11.924-15.416,19.7-34.887,8.7-50.678-3.174-4.537-7.737-8.519-10.314-13.255-3.293-6.06-3.036-12.787-1.988-19.335.133-.825.289-1.645.43-2.465,1.8-9.688,5.145-20.129,15.509-26.177,10.764-6.285,26.045-5.968,39.409-3.72,20.778,3.5,39.946,10.8,59.3,17.4s39.628,12.623,60.914,13.275c18.793.577,40.716-3.714,53.189-14.851,12.121-10.816,34.89-11.639,51.31-5.105,11.255,4.485,19.667,12.562,23.214,21.644a27.058,27.058,0,0,1,1.544,5.639,24.679,24.679,0,0,1,.289,5.319,23.682,23.682,0,0,1-.289,2.6c-2.742,17.93-22.484,32.07-34.483,48.087-5.864,7.824-10.005,17.22-5.974,25.655,6.15,12.854,27.537,17.422,40.457,26.991a29.5,29.5,0,0,1,6.349,6.158C359.527,275.018,357.215,286.515,347.885,293.305Z" transform="translate(-113.78 -113.22)" fill="#e07a5f" opacity="0.1"/>
    <ellipse id="Ellipse_91" data-name="Ellipse 91" cx="77.814" cy="2.643" rx="77.814" ry="2.643" transform="translate(77.353 185.137)" fill="#6c63ff" opacity="0.1"/>
    <path id="Tracé_403" data-name="Tracé 403" d="M635.019,388.056h-2.56L613.736,291.4l-2.4,96.656h-2.718l-3.042-96.494L587.33,388.056h-2.88l12.4-99.345.4-3.229,24.325-2.721.756,5.951Z" transform="translate(-415.789 -201.161)" fill="#464353"/>
    <rect id="Rectangle_296" data-name="Rectangle 296" width="15.483" height="9.601" transform="translate(152.076 62.223)" fill="#464353"/>
    <path id="Tracé_404" data-name="Tracé 404" d="M863.05,303.971l9.362-3.781h2.052a1.128,1.128,0,0,1,1.128,1.128v26.365a1.128,1.128,0,0,1-1.128,1.128h-2.052l-9.362-3.9Z" transform="translate(-621.141 -245.946)" fill="#464353"/>
    <rect id="Rectangle_297" data-name="Rectangle 297" width="19.142" height="18.542" transform="translate(222.767 59.225)" fill="#464353"/>
    <rect id="Rectangle_298" data-name="Rectangle 298" width="12.323" height="2.239" transform="translate(189.54 24.398)" fill="#514e7f"/>
    <rect id="Rectangle_299" data-name="Rectangle 299" width="34.685" height="25.323" transform="translate(175.48 27.299)" fill="#81b29a"/>
    <rect id="Rectangle_300" data-name="Rectangle 300" width="34.685" height="3.001" transform="translate(175.48 49.624)" opacity="0.1"/>
    <rect id="Rectangle_301" data-name="Rectangle 301" width="0.776" height="18.542" transform="translate(222.47 59.225)" opacity="0.1"/>
    <rect id="Rectangle_302" data-name="Rectangle 302" width="5.281" height="9.601" transform="translate(162.277 62.223)" opacity="0.1"/>
    <path id="Tracé_405" data-name="Tracé 405" d="M652.9,288.711H627.42l.4-3.229,24.325-2.721Z" transform="translate(-446.359 -201.161)" opacity="0.1"/>
    <rect id="Rectangle_303" data-name="Rectangle 303" width="60.008" height="36.965" rx="10.7" transform="translate(162.756 50.103)" fill="#81b29a"/>
    <path id="Tracé_406" data-name="Tracé 406" d="M833.948,201.07h.182v20.943h-.182a1.5,1.5,0,0,1-1.5-1.5V202.568A1.5,1.5,0,0,1,833.948,201.07Z" transform="translate(-592.22 -143.046)" fill="#514e7f"/>
    <path id="Tracé_407" data-name="Tracé 407" d="M870.71,188h1.942a1.238,1.238,0,0,1,1.238,1.238V215.39a1.238,1.238,0,0,1-1.238,1.238H870.71Z" transform="translate(-619.439 -133.747)" fill="#514e7f"/>
    <rect id="Rectangle_304" data-name="Rectangle 304" width="2.762" height="9.601" transform="translate(152.076 62.223)" opacity="0.1"/>
    <rect id="Rectangle_305" data-name="Rectangle 305" width="5.399" height="16.322" rx="2.7" transform="translate(148.956 59.225)" fill="#514e7f"/>
    <circle id="Ellipse_92" data-name="Ellipse 92" cx="17.283" cy="17.283" r="17.283" transform="translate(158.197 10.015)" fill="#464353"/>
    <circle id="Ellipse_93" data-name="Ellipse 93" cx="12.963" cy="12.963" r="12.963" transform="translate(162.517 14.335)" fill="#81b29a"/>
    <circle id="Ellipse_94" data-name="Ellipse 94" cx="12.602" cy="12.602" r="12.602" transform="translate(194.922 15.057)" fill="#464353"/>
    <circle id="Ellipse_95" data-name="Ellipse 95" cx="9.451" cy="9.451" r="9.451" transform="translate(198.073 18.208)" fill="#81b29a"/>
    <circle id="Ellipse_97" data-name="Ellipse 97" cx="1.659" cy="1.659" r="1.659" transform="translate(210.165 53.944)" fill="#6c63ff" opacity="0.5"/>
  </g>
</svg>
