<svg xmlns="http://www.w3.org/2000/svg" xmlns:xlink="http://www.w3.org/1999/xlink" width="1469.012" height="862.631" viewBox="0 0 1469.012 862.631">
  <defs>
    <linearGradient id="linear-gradient" x1="0.5" y1="1" x2="0.5" gradientUnits="objectBoundingBox">
      <stop offset="0" stop-color="gray" stop-opacity="0.251"/>
      <stop offset="0.54" stop-color="gray" stop-opacity="0.122"/>
      <stop offset="1" stop-color="gray" stop-opacity="0.102"/>
    </linearGradient>
  </defs>
  <g id="Groupe_99" data-name="Groupe 99" transform="translate(0.003 0.002)" opacity="0.28">
    <path id="Tracé_408" data-name="Tracé 408" d="M1454.44,913.477c-1.379,1.009-2.8,1.979-4.227,2.937a141.749,141.749,0,0,1-16.485,9.513c-29.956,14.94-66.859,22.231-102.816,27.185-80.636,11.135-162.971,13.293-244.961,15.412-221.5,5.759-443.6,11.492-664.539-1.762-87.289-5.235-176.532-14.046-255.649-40.861q-17-5.759-33.353-12.692c-22.039-9.385-43.21-20.788-60.819-34.374-16.6-12.769-29.956-27.453-37.975-44.13-16.727-34.757-7.878-73.792,11.211-107.847a333.348,333.348,0,0,1,26.815-39.584c14.71-19.179,30.939-37.758,45.777-56.911C170.182,562.15,204.607,476,155.906,406.125c-14.046-20.073-34.234-37.694-45.637-58.648-14.569-26.815-13.433-56.58-8.8-85.553.587-3.652,1.277-7.278,1.9-10.9,7.955-42.866,22.767-89.064,68.621-115.828,47.628-27.811,115.241-26.406,174.374-16.459,91.937,15.476,176.749,47.795,262.391,76.984S784.1,251.569,878.289,254.455c83.152,2.554,180.158-16.434,235.346-65.709,53.63-47.858,154.378-51.5,227.034-22.588,49.8,19.843,87.021,55.584,102.714,95.768a119.719,119.719,0,0,1,6.831,24.951,109.206,109.206,0,0,1,1.277,23.533,104.76,104.76,0,0,1-1.277,11.492c-12.131,79.334-99.484,141.9-152.577,212.77-25.947,34.617-44.27,76.193-26.432,113.517,27.211,56.873,121.842,77.087,179.009,119.429a130.542,130.542,0,0,1,28.092,27.249C1505.951,832.56,1495.723,883.432,1454.44,913.477Z" transform="translate(-24.78 -112.22)" fill="#e07a5f" opacity="0.1"/>
    <ellipse id="Ellipse_98" data-name="Ellipse 98" cx="344.304" cy="11.696" rx="344.304" ry="11.696" transform="translate(342.275 819.185)" fill="#02bc77" opacity="0.1"/>
    <g id="flowers" transform="translate(953.959 406.871)">
      <path id="Tracé_409" data-name="Tracé 409" d="M776.7,830.864S850.76,737.05,845.027,643.8c-2.413-39.15,7.227-78.121,28.769-110.9A303.766,303.766,0,0,1,908.6,489.42" transform="translate(-770.529 -414.643)" fill="none" stroke="#535461" stroke-miterlimit="10" stroke-width="2"/>
      <path id="Tracé_410" data-name="Tracé 410" d="M877.8,446.834c-5.235,13.05,3.179,60.346,3.179,60.346s38.805-28.334,44.04-41.372a25.457,25.457,0,0,0-47.245-18.975Z" transform="translate(-743.009 -430.858)" fill="#e07a5f"/>
      <path id="Tracé_411" data-name="Tracé 411" d="M824.243,494.236c2.694,13.791,35.472,48.918,35.472,48.918s17.174-44.87,14.48-58.661a25.448,25.448,0,1,0-49.954,9.743Z" transform="translate(-757.496 -421.706)" fill="#e07a5f"/>
      <path id="Tracé_412" data-name="Tracé 412" d="M788.026,594.036c9.283,10.547,55.3,24.261,55.3,24.261s-7.828-47.4-17.111-57.946a25.441,25.441,0,1,0-38.192,33.621Z" transform="translate(-769.15 -397.391)" fill="#e07a5f"/>
      <path id="Tracé_413" data-name="Tracé 413" d="M775.65,673.2c7.368,11.965,50.412,33.327,50.412,33.327s.294-48.05-7.074-60.014A25.448,25.448,0,1,0,775.65,673.2Z" transform="translate(-771.867 -374.495)" fill="#e07a5f"/>
      <path id="Tracé_414" data-name="Tracé 414" d="M903.089,554.176c-13.012,5.325-60.359-2.771-60.359-2.771s28.092-39,41.065-44.321a25.447,25.447,0,1,1,19.3,47.095Z" transform="translate(-752.245 -410.28)" fill="#e07a5f"/>
      <path id="Tracé_415" data-name="Tracé 415" d="M887.311,647.866c-14.046,1.2-56.771-20.7-56.771-20.7s38.448-28.807,52.443-30.007a25.447,25.447,0,1,1,4.329,50.709Z" transform="translate(-755.62 -384.835)" fill="#e07a5f"/>
      <path id="Tracé_416" data-name="Tracé 416" d="M860.81,736.362c-13.6,3.537-59.44-10.815-59.44-10.815s33.021-34.885,46.62-38.435a25.449,25.449,0,0,1,12.769,49.25Z" transform="translate(-763.698 -360.082)" fill="#e07a5f"/>
      <path id="Tracé_424" data-name="Tracé 424" d="M777.2,809.851s105.728-55.737,138.263-143.32c13.663-36.775,38.307-68.493,71.238-89.728a304.658,304.658,0,0,1,49.455-25.653" transform="translate(-770.39 -397.549)" fill="none" stroke="#535461" stroke-miterlimit="10" stroke-width="2"/>
      <path id="Tracé_425" data-name="Tracé 425" d="M1000.971,509.563c-10.062,9.794-21.541,56.452-21.541,56.452s46.952-10.215,57.026-19.971a25.447,25.447,0,1,0-35.487-36.483Z" transform="translate(-714.392 -411.061)" fill="#e07a5f"/>
      <path id="Tracé_426" data-name="Tracé 426" d="M929.729,531.2c-3.129,13.7,12.6,59.1,12.6,59.1s33.876-34.055,37.03-47.756A25.446,25.446,0,1,0,929.75,531.2Z" transform="translate(-728.268 -408.552)" fill="#e07a5f"/>
      <path id="Tracé_427" data-name="Tracé 427" d="M856.29,607.858C860.5,621.265,897,652.549,897,652.549s12.054-46.5,7.84-59.912a25.449,25.449,0,1,0-48.522,15.323Z" transform="translate(-748.86 -391.14)" fill="#e07a5f"/>
      <path id="Tracé_428" data-name="Tracé 428" d="M812.828,675.132c1.89,13.918,32.574,50.885,32.574,50.885s19.741-43.8,17.877-57.729a25.45,25.45,0,0,0-50.438,6.844Z" transform="translate(-760.586 -371.214)" fill="#e07a5f"/>
      <path id="Tracé_429" data-name="Tracé 429" d="M978.874,615.7c-14.046-.4-54.064-26.994-54.064-26.994s41.461-24.261,55.507-23.878a25.447,25.447,0,1,1-1.443,50.874Z" transform="translate(-729.517 -393.762)" fill="#e07a5f"/>
      <path id="Tracé_430" data-name="Tracé 430" d="M925.064,694.567c-13.28-4.584-43.5-41.921-43.5-41.921s46.811-10.764,60.1-6.18a25.449,25.449,0,0,1-16.6,48.1Z" transform="translate(-741.493 -371.471)" fill="#e07a5f"/>
      <path id="Tracé_431" data-name="Tracé 431" d="M865.838,764.932c-13.867-2.273-49.978-33.966-49.978-33.966s44.334-18.528,58.2-16.255a25.447,25.447,0,1,1-8.224,50.225Z" transform="translate(-759.685 -352.312)" fill="#e07a5f"/>
    </g>
    <path id="Tracé_432" data-name="Tracé 432" d="M808.2,748.664H796.876L714.03,320.991,703.406,748.664H691.378L677.919,321.706,597.193,748.664H584.45L639.318,309.09l1.788-14.289,107.63-12.041,3.345,26.33Z" transform="translate(161.837 78.298)" fill="#464353"/>
    <rect id="Rectangle_306" data-name="Rectangle 306" width="68.506" height="42.483" transform="translate(672.904 275.326)" fill="#464353"/>
    <path id="Tracé_433" data-name="Tracé 433" d="M863.05,316.917l41.423-16.727h9.079a4.993,4.993,0,0,1,4.993,4.993V421.841a4.993,4.993,0,0,1-4.993,4.993h-9.079L863.05,409.582Z" transform="translate(207.341 -60.17)" fill="#464353"/>
    <rect id="Rectangle_307" data-name="Rectangle 307" width="84.697" height="82.041" transform="translate(985.694 262.059)" fill="#464353"/>
    <rect id="Rectangle_308" data-name="Rectangle 308" width="54.524" height="9.909" transform="translate(838.671 107.963)" fill="#514e7f"/>
    <rect id="Rectangle_309" data-name="Rectangle 309" width="153.471" height="112.048" transform="translate(776.46 120.796)" fill="#514e7f"/>
    <rect id="Rectangle_310" data-name="Rectangle 310" width="153.471" height="13.28" transform="translate(776.46 219.577)" opacity="0.1"/>
    <rect id="Rectangle_311" data-name="Rectangle 311" width="3.435" height="82.041" transform="translate(984.379 262.059)" opacity="0.1"/>
    <rect id="Rectangle_312" data-name="Rectangle 312" width="23.367" height="42.483" transform="translate(718.042 275.326)" opacity="0.1"/>
    <path id="Tracé_434" data-name="Tracé 434" d="M740.183,309.09H627.42l1.788-14.289,107.63-12.041Z" transform="translate(173.736 78.298)" opacity="0.1"/>
    <rect id="Rectangle_313" data-name="Rectangle 313" width="265.519" height="163.559" rx="10.7" transform="translate(720.162 221.697)" fill="#514e7f"/>
    <path id="Tracé_435" data-name="Tracé 435" d="M839.077,201.07h.8v92.665h-.8a6.627,6.627,0,0,1-6.627-6.627V207.7A6.627,6.627,0,0,1,839.077,201.07Z" transform="translate(230.509 55.678)" fill="#514e7f"/>
    <path id="Tracé_436" data-name="Tracé 436" d="M870.71,188H879.3a5.478,5.478,0,0,1,5.478,5.478V309.191a5.478,5.478,0,0,1-5.478,5.478H870.71Z" transform="translate(241.104 52.058)" fill="#514e7f"/>
    <rect id="Rectangle_314" data-name="Rectangle 314" width="12.22" height="42.483" transform="translate(672.904 275.326)" opacity="0.1"/>
    <rect id="Rectangle_315" data-name="Rectangle 315" width="23.891" height="72.222" rx="7.2" transform="translate(659.1 262.059)" fill="#514e7f"/>
    <circle id="Ellipse_99" data-name="Ellipse 99" cx="76.474" cy="76.474" r="76.474" transform="translate(699.987 44.322)" fill="#464353"/>
    <circle id="Ellipse_100" data-name="Ellipse 100" cx="57.359" cy="57.359" r="57.359" transform="translate(719.102 63.437)" fill="#e07a5f"/>
    <circle id="Ellipse_101" data-name="Ellipse 101" cx="55.762" cy="55.762" r="55.762" transform="translate(862.485 66.629)" fill="#464353"/>
    <circle id="Ellipse_102" data-name="Ellipse 102" cx="41.819" cy="41.819" r="41.819" transform="translate(876.429 80.573)" fill="#e07a5f"/>
    <circle id="Ellipse_103" data-name="Ellipse 103" cx="7.342" cy="7.342" r="7.342" transform="translate(906.577 238.692)" fill="#02bc77"/>
    <circle id="Ellipse_104" data-name="Ellipse 104" cx="7.342" cy="7.342" r="7.342" transform="translate(929.931 238.692)" fill="#02bc77" opacity="0.5"/>
    <path id="Tracé_437" data-name="Tracé 437" d="M791.13,380.729l-.523-1.034a46.323,46.323,0,0,1,9.27,4.265c-1.277-11.1-43.836-42.253-51.5-42.253S732.2,328.478,732.2,328.478s-22.129-3.409-25.538-7.023-26.394-1.507-31.923-.23-14.046-3.409-14.046-3.409-4.686-7.661-10.637-7.661-12.322-8.53-12.322-8.53-5.555-5.108-10.662-5.976-11.492-6.384-14.48-10.662-17.877-6.385-26.381-5.108-31.5-1.737-31.5-1.737c9.36-4.265,11.62-14.506,11.62-14.506-8.376-.434-30.39-18.924-30.39-18.924s.907,5.976,1.954,14.314l-1.417-1.826-.192.153a138.1,138.1,0,0,1-.192-17.877c0-.46.077-.919.1-1.392A39.763,39.763,0,0,0,548.659,198.9c-.23-.97-.5-1.915-.8-2.847a17.711,17.711,0,0,0,5.108,1.277h.907a7.47,7.47,0,0,0,5.606-2.477h0a5.994,5.994,0,0,0,.626-.97,1.642,1.642,0,0,0,.115-.2,6.964,6.964,0,0,0,.383-.97,3.636,3.636,0,0,0,.089-.358,7.876,7.876,0,0,0,.153-.792v-1.175a15.156,15.156,0,0,0-1.277-5.7c-1.341-3.294-3.269-6.551-3.128-10.113a6.261,6.261,0,0,1,.1-.856c.358-2.8,1.826-5.389,2.707-8.083v-.115c.128-.4.23-.792.319-1.188a2.916,2.916,0,0,0,.1-.358,10.8,10.8,0,0,0,.192-1.417v-.1c.332-5.337-3.971-10-8.849-12.156-4.367-1.941-9.36-2.464-13.356-5.108-4.559-3-7.061-8.2-10.432-12.5-4.9-6.257-12.577-10.93-20.43-10.036-4.839.549-9.232,3.09-14.046,4.073-7.317,1.52-15.055-.69-22.333,1.009a7.661,7.661,0,0,0-4.546,2.554,5.2,5.2,0,0,0-.919,2.311h0a8.825,8.825,0,0,0,0,2.324v.064a16.353,16.353,0,0,0,.4,2.184l.115.447a1.882,1.882,0,0,0,.1.447c.038.153.166.6.243.894.14.5.255,1,.383,1.507v.179c.115.524.23,1.047.319,1.583h0a26.893,26.893,0,0,1,.409,3.345h0a15.411,15.411,0,0,1-1.954,9.092c-3.192,5.108-9.973,7.368-12.922,12.692a11.008,11.008,0,0,0-1.277,4.15h0a11.1,11.1,0,0,0-.064,1.456v.192a4.855,4.855,0,0,0,.115,1.277,2.541,2.541,0,0,0,0,.306,11.021,11.021,0,0,0,.255,1.124,1.149,1.149,0,0,0,.1.358,10,10,0,0,0,.511,1.277h0c1.366,2.848,3.946,5.2,4.482,8.287h0a.475.475,0,0,0,.064.281c.294,2.324-.664,4.6-1.162,6.883a8.218,8.218,0,0,0-.153.843h0v1.7a3.147,3.147,0,0,0,0,.358v.83a2.026,2.026,0,0,0,.128.472l.089.319a4.752,4.752,0,0,0,.2.447l.14.281a4.659,4.659,0,0,0,.306.447,2.139,2.139,0,0,0,.153.2,3.474,3.474,0,0,0,.587.549c1.762,1.277,4.508.945,5.95,2.554a3.029,3.029,0,0,1,.409.638l.077.153a3.527,3.527,0,0,1,.243.7h0a7,7,0,0,1,0,2.911c-.511,2.554-1.6,4.878-2.171,7.381-.115.511-.192,1.034-.255,1.558h0a2.573,2.573,0,0,1-.064.7v1a4.151,4.151,0,0,0,.077.97c.077.319,0,.306.077.447l.077.37a1.823,1.823,0,0,0,.14.5l.115.319c.064.179.153.358.23.536a2.218,2.218,0,0,0,.128.243,4.473,4.473,0,0,0,.46.741c1.545,2.094,4.086,2.8,6.768,2.809a21.326,21.326,0,0,0,4.52-.511c.332.779.677,1.558,1.047,2.311a39.674,39.674,0,0,0,7.189,10.113,9.628,9.628,0,0,1-.128,1.188c-.294,2.911-.651,6.04-1.06,9.194-3.307-1.52-5.861-2.107-6.87-1.009-4.278,4.7,0,20.916,0,20.916s-20.877,0-25.985,4.686-14.467,0-14.467,0-19.154,2.145-17.877,5.989-10.215,0-10.215,0-8.1.856-7.661,6.385-12.348,8.1-10.649,11.939-7.661,6.385-7.661,6.385-9.36-.421-5.95,5.108h0s-5.108,11.952-9.36,12.769-9.794,10.662-9.794,10.662-16.4,2.988-15.655,8.108-25.206,41.755-25.206,41.755-8.517,17.557-2.554,30.365,10.215,21.337,11.492,26.023,16.753,25.321,16.625,29.164c0,1.2,3.831,7.661,9.053,15.859l-1.532,1.583-3.358,3.46s-10.649,26.457,2.12,27.734c10.79,1.073,18.541,1.852,22.474.779a5.388,5.388,0,0,0,1.788-.779l.153-.115c4.648,6.857,7.942,11.645,7.942,11.645s.46-.677,1.277-1.839l1.277,1.826s1.021-1.456,2.758-3.831c-.562,11.607-.638,23.048-.638,23.048s5.542-.856,2.988,24.746,15.323,46.5,15.323,46.5v37.988h0a25.467,25.467,0,0,0,.179,2.554c.472,5.452,2.03,18.311,6.627,26.815,5.963,11.084,0,40.108,0,40.108s-.4,23.674,1.034,53.2c0,.8.089,1.634.128,2.452-25.819,21.58-53.515,50.182-53.515,50.182a14.048,14.048,0,0,1,3.831,1.724l-1.545,1.979-7.036,8.67h0l-5.44,6.716h0l8.619,26.547,9.411-3.677s5.108,8.849,4.035,14.85a6.384,6.384,0,0,1-1.277,2.975,3.755,3.755,0,0,0-.664,1.468c-2.464,9.615,7.815,51.076,24.121,52.877,0,0,5.529,1.826,7.3-3.154.856-2.4.843-6.384-1.073-12.858,0,0-8.619-10.394-3.039-21.592,3.269-6.551,8.67-15.323,12.577-21.516l1.609-2.554c3.512,4.431,5.669,7.278,5.669,7.278l12.539-13.484c.268.575.536,1.136.817,1.673a40.082,40.082,0,0,0,3.243,5.388l8.5,33.723,3.435-.766c-.077.817-.128,1.685-.179,2.554-.281,6.053,0,13.906,2.8,19.511,2.094,4.29,5.631,7.278,11.4,7.138,19.792-.485,25.538-11.2,25.538-11.2V906.839l6.806-1.52s-.5-58.916-2.247-91.771c0-.728-.077-1.43-.115-2.12v-.294l43.708-47,3.358-1.341c28.092-11.1,28.526-39.686,28.526-39.686s0-15.782,3.4-29.011.434-81.939-5.95-99-8.517-36.29-8.517-36.29,6.385-8.938,0-16.383a32.7,32.7,0,0,1-4.469-7.3l8.313-1.366,4.788-.792,2.554-.434c-1.277,11.288-1.494,19.958,1.532,22.027,9.372,6.385,40.861-14.94,40.861-14.94-11.492,0-17.877-85.77-15.54-87.9s5.823-45.113,2.771-52.775,10.713-41.87,10.713-41.87l2.12-3.141h0s50.233,21.924,55.762,26.125,22.984-10.215,25.959-4.635,21.707,13.893,21.707,13.893,27.67-2.8,30.646,4.035,20.865,22.831,20.865,22.831a97.447,97.447,0,0,1,.677-11.224c.37.881.728,1.775,1.111,2.681,8.479,20.06,22.588,45.458,35.664,31.795C809.645,423.9,798.37,395.2,791.13,380.729Zm-378.589,90.66v.243l-.1-.1Zm-9.909-98.424-5.414,57.09-10.637,11.02-1.277,1.354L374.31,430.464s-5.542-2.554,0-7.253-9.36-15.323-9.36-15.323-.434-7.661,5.108-9.807,12.769-16.217,12.769-16.217l20.009-10.215h0Zm71.2,292.207a6.768,6.768,0,0,1,1.277-.932c2.388-1.354,3.92.128,4.712,2.733a22.014,22.014,0,0,1-.907,13.127c-2.975,6.831,4.265,34.144,4.265,34.144s-9.372,4.252-11.071,12.373a8.44,8.44,0,0,1-1.277,2.784c-.115-.715-.217-1.4-.319-2.069-.83-5.108-1.277-8.4-1.277-8.4a54.369,54.369,0,0,1-.856-20.047c1.354-8.21,4.086-24.887,5.108-31.208.255-1.532.4-2.452.409-2.554Z" transform="translate(53.734 -109.361)" fill="url(#linear-gradient)"/>
    <path id="Tracé_438" data-name="Tracé 438" d="M484.744,222.319l2.758-1.839,7.776,16.408L492.29,240.4h-9.04s.319-8.938.536-9.258S484.744,222.319,484.744,222.319Z" transform="translate(102.173 -82.242)" fill="#464353"/>
    <path id="Tracé_439" data-name="Tracé 439" d="M451.245,731.27v35.115s-5.746,10.688-25.538,11.173a11.62,11.62,0,0,1-11.4-7.112c-2.758-5.593-3.077-13.433-2.8-19.473a76.611,76.611,0,0,1,.958-9.015Z" transform="translate(82.284 59.198)" fill="#3f3d56"/>
    <path id="Tracé_440" data-name="Tracé 440" d="M451.227,731.27v10.866l-39.737,8.836a76.611,76.611,0,0,1,.958-9.015Z" transform="translate(82.302 59.198)" opacity="0.1"/>
    <path id="Tracé_441" data-name="Tracé 441" d="M466.675,793.639l-49.8,11.071-8.5-33.634a40.729,40.729,0,0,1-3.243-5.376c-.549-1.073-1.085-2.209-1.6-3.4-9.27-21.209-13.395-59.465-15.157-92.014-.089-1.647-.179-3.282-.255-4.891-1.43-29.445-1.034-53.068-1.034-53.068s5.963-28.947,0-40.005c-4.6-8.53-6.155-21.35-6.627-26.815-.128-1.622-.179-2.554-.179-2.554l.919-2.413,3.754-9.934h41.3l24.006,20.316,3.652,3.09-.409,2.554c-1.034,6.308-3.767,22.984-5.108,31.131a54.1,54.1,0,0,0,.856,20s.5,3.243,1.277,8.389c.192,1.277.409,2.63.651,4.1,3.052,18.873,8.772,53.336,11.211,61.572.677,2.26,1.277,7.93,1.724,15.6.1,1.532.192,3.128.281,4.8C466.177,734.876,466.675,793.639,466.675,793.639Z" transform="translate(73.66 3.634)" fill="#514e7f"/>
    <path id="Tracé_442" data-name="Tracé 442" d="M450.621,758.49v.358s-5.746,10.688-25.538,11.173a11.62,11.62,0,0,1-11.4-7.112C422.554,765.092,436.958,766.5,450.621,758.49Z" transform="translate(82.909 66.735)" opacity="0.1"/>
    <path id="Tracé_443" data-name="Tracé 443" d="M698.695,387.207c-13.127,13.625-27.173-11.709-35.664-31.718-4.763-11.262-7.751-20.852-7.751-20.852l34.936-14.787s2.145,3.409,4.839,8.811C702.3,343.09,713.571,371.718,698.695,387.207Z" transform="translate(149.809 -54.726)" fill="#a1616a"/>
    <path id="Tracé_444" data-name="Tracé 444" d="M500.234,223.407a159.4,159.4,0,0,0,2.822,37.72s-71.072,7.661-64.688-3.4c3.741-6.487,6.167-23.61,7.521-36.7.983-9.27,1.417-16.51,1.417-16.51s68.1-27.236,57.882-4.252C502.137,207.126,500.719,215.247,500.234,223.407Z" transform="translate(89.633 -90.391)" fill="#a1616a"/>
    <path id="Tracé_445" data-name="Tracé 445" d="M468.721,250.058,459.17,364.123l43.836-7.227-7.661-94.069L497.9,237.71Z" transform="translate(127.147 65.823)" fill="#464353"/>
    <path id="Tracé_446" data-name="Tracé 446" d="M503.009,357.036l-19.039,3.141-24.81,4.086,1.749-20.814,7.815-93.252,9.947-4.214,7.049-2.975L497.9,237.85l-2.554,25.117Z" transform="translate(127.144 65.862)" opacity="0.1"/>
    <path id="Tracé_447" data-name="Tracé 447" d="M384.009,754.03c-5.58,11.173,3.039,21.541,3.039,21.541,1.915,6.474,1.928,10.432,1.073,12.769-1.775,4.967-7.3,3.141-7.3,3.141-17.391-1.915-27.926-48.829-23.457-54.2s-2.72-17.723-2.72-17.723l-9.411,3.665-8.619-26.483,5.44-6.7,7.036-8.657,4.763-5.874,47.565,49.633s-2.03,3.052-4.827,7.432C392.679,738.707,387.278,747.517,384.009,754.03Z" transform="translate(61.568 43.755)" fill="#3f3d56"/>
    <path id="Tracé_448" data-name="Tracé 448" d="M462.672,682.687l-59.3,63.6c-10.394-20.3-14.863-61.036-16.753-95.423,11.045-9.194,21.707-17.11,29.777-20.928,0,0,27.3-19.754,33.059-29.228,3.052,18.873,8.772,53.336,11.211,61.572C461.472,664.989,462.136,672.587,462.672,682.687Z" transform="translate(75.416 23.045)" opacity="0.1"/>
    <path id="Tracé_449" data-name="Tracé 449" d="M425.275,438.7,356.22,428.314l3.754-9.934h41.3Z" transform="translate(98.64 115.851)" opacity="0.1"/>
    <path id="Tracé_450" data-name="Tracé 450" d="M462.5,678.772l-60.615,65.007c-9.321-21.209-13.446-59.465-15.208-92.014-.089-1.647-.179-3.282-.255-4.891,11.147-9.3,21.937-17.289,30.033-21.146,0,0,25.474-18.426,32.408-28.219.192,1.277.409,2.63.651,4.1,3.052,18.873,8.772,53.336,11.211,61.572C461.4,665.428,461.962,671.1,462.5,678.772Z" transform="translate(75.36 22.159)" opacity="0.1"/>
    <path id="Tracé_451" data-name="Tracé 451" d="M398.707,725.153s-2.03,3.052-4.827,7.432c-10.151-12.833-34.221-42.38-47.5-51.191l4.763-5.874Z" transform="translate(64.273 43.76)" opacity="0.1"/>
    <path id="Tracé_452" data-name="Tracé 452" d="M553.158,618.387c-3.4,13.2-3.4,28.947-3.4,28.947s-.434,28.513-28.526,39.584l-3.358,1.277-116.2,124.664s-42.993-56.184-57.039-59.593c0,0,56.605-58.316,83.42-71.085,0,0,32.357-23.406,34.055-31.488s11.071-12.348,11.071-12.348-7.24-27.236-4.265-34.055a21.886,21.886,0,0,0,.907-13.088c-.792-2.554-2.324-4.073-4.712-2.733a6.768,6.768,0,0,0-1.277.932L390.213,578.33V540.5s-17.877-20.852-15.323-46.39-2.988-24.683-2.988-24.683.268-43.134,3.907-46.735,38.6-20.1,38.6-20.1l109.609,19.473,4.52,20.967s3.831,16.676,10.215,24.082,0,16.332,0,16.332,2.132,19.154,8.517,36.2S556.568,605.2,553.158,618.387Z" transform="translate(63.791 -31.815)" fill="#514e7f"/>
    <path id="Tracé_453" data-name="Tracé 453" d="M503.469,200.269c-3.052,6.857-4.469,15.029-4.954,23.137a39.584,39.584,0,0,1-54.345-2.375c.983-9.27,1.417-16.51,1.417-16.51S513.685,177.285,503.469,200.269Z" transform="translate(91.351 -90.391)" opacity="0.1"/>
    <path id="Tracé_454" data-name="Tracé 454" d="M514.6,200.59a39.584,39.584,0,1,1-1.1-9.283A39.584,39.584,0,0,1,514.6,200.59Z" transform="translate(88.931 -98.718)" fill="#a1616a"/>
    <path id="Tracé_455" data-name="Tracé 455" d="M495.617,249.165s-28.449-13.19-30.224-14.9S404.6,384.095,404.6,384.095L388,459.432s88.528,37.873,107.681,32.765,20.852,0,20.852,0S536.121,382.384,542.505,372.6s-5.963-109.392-5.963-109.392l-22.129-28.96Z" transform="translate(75.798 -78.429)" opacity="0.1"/>
    <path id="Tracé_456" data-name="Tracé 456" d="M495.617,245.165s-28.449-13.19-30.224-14.9S404.6,380.095,404.6,380.095L388,455.432s88.528,37.873,107.681,32.765,20.852,0,20.852,0S536.121,378.384,542.505,368.6s-5.963-109.392-5.963-109.392l-22.129-28.96Z" transform="translate(75.798 -79.537)" opacity="0.1"/>
    <path id="Tracé_457" data-name="Tracé 457" d="M542.437,370.6c-1.277,2.03-3.205,8.338-5.363,17.072-1.507,6.078-3.141,13.318-4.814,21.107-7.534,35.153-15.783,81.428-15.783,81.428s-.523-1.558-4.214-2.094c-2.988-.434-8.07-.192-16.6,2.094-19.154,5.108-107.694-32.778-107.694-32.778l2.554-11.492,14.046-63.845s59.172-151.53,60.87-149.819c1.034,1.034,12.092,6.385,20.52,10.356,5.376,2.554,9.7,4.533,9.7,4.533l17.877-14.123.983-.779,22.027,28.947S548.821,360.806,542.437,370.6Z" transform="translate(75.79 -78.98)" fill="#e07a5f"/>
    <path id="Tracé_458" data-name="Tracé 458" d="M474.218,262.072c2.554,9.819-3.4,25.959-3.4,25.959s-20.43,50.233-26.394,73.447-40.069,70-40.069,70-5.005,5.018-12.016,12c-.779.779-1.6,1.583-2.413,2.426l14.046-63.845s59.172-151.53,60.87-149.819c1.034,1.034,12.092,6.385,20.52,10.356C480.092,247.4,472.52,255.572,474.218,262.072Z" transform="translate(76.332 -78.989)" opacity="0.1"/>
    <path id="Tracé_459" data-name="Tracé 459" d="M487.694,265.325c2.554,9.819-3.4,25.959-3.4,25.959s-20.43,50.233-26.394,73.447-40.069,70-40.069,70-5.005,5.018-12.016,12c-.83.83-1.7,1.686-2.554,2.554-13.688,13.625-32.931,32.727-38.946,38.307-.881.83-1.481,1.366-1.737,1.545a5.386,5.386,0,0,1-1.788.779c-3.933,1.073-11.684.294-22.474-.779-12.769-1.277-2.12-27.658-2.12-27.658l3.358-3.46,3.065-3.167,34.783-35.792,2.554-2.694L390.6,405.4l5.414-56.95.128-1.366s-1.583-3.614-4.022-9.13c-6.5-14.927-19.268-43.734-23.942-53.043-.536-1.085-.958-1.89-1.277-2.388,0-.064-.064-.128-.1-.179-3.409-5.529,5.95-5.108,5.95-5.108s9.372-2.554,7.661-6.385,11.071-6.385,10.649-11.914,7.661-6.385,7.661-6.385,11.492,3.831,10.215,0,17.877-5.963,17.877-5.963,9.36,4.686,14.467,0,26.062-4.673,26.062-4.673-4.278-16.178,0-20.865,36.353,20.865,36.353,20.865S485.141,255.518,487.694,265.325Z" transform="translate(60.302 -82.242)" fill="#464353"/>
    <path id="Tracé_460" data-name="Tracé 460" d="M370.61,431.613s35.332,49.8,60.014,33.634-33.2-58.316-33.2-58.316Z" transform="translate(70.982 -30.613)" opacity="0.1"/>
    <path id="Tracé_461" data-name="Tracé 461" d="M370.61,429.613s35.332,49.8,60.014,33.634-33.2-58.316-33.2-58.316Z" transform="translate(70.982 -31.167)" fill="#a1616a"/>
    <path id="Tracé_462" data-name="Tracé 462" d="M508.108,504.841c2.694-23.508,10.509-58.827,4.137-69.54-3.154-5.312-5.491-15.438-7.2-26.521-.919-5.963-1.647-12.207-2.235-18.132-1.558-15.719-2.056-29.177-2.056-29.177s-15.323-68.34-12.348-82.386c1.864-8.785-.281-30.8-2.145-46.045l.983-.779,22.027,28.947s12.335,99.6,5.95,109.392c-1.277,2.03-3.205,8.338-5.363,17.072l12.182-5.108-2.554,25.117,7.661,94.069Z" transform="translate(103.006 -78.98)" opacity="0.1"/>
    <path id="Tracé_463" data-name="Tracé 463" d="M486.58,220.48s22.014,18.451,30.39,18.873c0,0-2.26,10.215-11.62,14.48,0,0,22.984,3.039,31.5,1.724s23.406.83,26.381,5.108,9.436,9.768,14.544,10.611,10.662,5.963,10.662,5.963l-37.477,55.328s-13.625,34.055-10.649,41.716-.434,50.655-2.771,52.774,4.048,87.685,15.54,87.685c0,0-31.488,21.286-40.861,14.9s11.926-75.337,2.554-91.094-11.492-73.831-11.492-73.831-15.323-68.327-12.335-82.373S486.58,220.48,486.58,220.48Z" transform="translate(103.095 -82.242)" fill="#464353"/>
    <path id="Tracé_464" data-name="Tracé 464" d="M695.055,328.663c-11.377-3.55-28.807-3.652-32.025,26.815-4.763-11.262-7.751-20.852-7.751-20.852l34.936-14.787S692.361,323.262,695.055,328.663Z" transform="translate(149.809 -54.729)" opacity="0.1"/>
    <path id="Tracé_465" data-name="Tracé 465" d="M556.51,262.93l20.877,2.554S583.772,274,589.709,274s10.637,7.661,10.637,7.661,8.517,4.673,14.046,3.4,28.513-3.384,31.923.23,25.538,7.01,25.538,7.01,8.517,13.19,16.178,13.19,50.221,31.08,51.5,42.138c0,0-42.138-26.815-42.559,32.14,0,0-17.877-15.961-20.865-22.767s-30.646-4.035-30.646-4.035-18.719-8.313-21.707-13.842-20.43,8.811-25.959,4.61-55.762-26.062-55.762-26.062l-15.54-29.2Z" transform="translate(114.146 -70.487)" fill="#464353"/>
    <circle id="Ellipse_105" data-name="Ellipse 105" cx="3.614" cy="3.614" r="3.614" transform="translate(570.777 236.93)" fill="#3f3d56"/>
    <circle id="Ellipse_106" data-name="Ellipse 106" cx="3.614" cy="3.614" r="3.614" transform="translate(567.163 312.382)" fill="#3f3d56"/>
    <circle id="Ellipse_107" data-name="Ellipse 107" cx="3.614" cy="3.614" r="3.614" transform="translate(570.777 272.671)" fill="#3f3d56"/>
    <circle id="Ellipse_108" data-name="Ellipse 108" cx="3.614" cy="3.614" r="3.614" transform="translate(560.344 352.094)" fill="#3f3d56"/>
    <path id="Tracé_466" data-name="Tracé 466" d="M388.184,785.253c-1.775,4.967-7.3,3.141-7.3,3.141-17.391-1.915-27.926-48.829-23.457-54.2S354.64,716.4,354.64,716.4l-9.411,3.665-8.619-26.483,5.44-6.7c5.414,9.385,13.165,22.882,14.991,26.33a48.179,48.179,0,0,1,4.788,22.984C361.535,744.494,371.163,784.18,388.184,785.253Z" transform="translate(61.568 46.906)" opacity="0.1"/>
    <path id="Tracé_467" data-name="Tracé 467" d="M513.49,191.246c-.868-.294-1.737-.638-2.554-.983-2.924-1.188-6-2.554-7.776-5.108-1.622-2.375-2.145-5.721-4.673-7.074-2.911-1.558-6.385.549-9.538,1.277-3.754.881-7.661-.166-11.313-1.507-5.44-2-13.037-5.695-18.617-1.877-4.341,2.962-2.656,9.245-3.767,13.727-1.724,6.959-9.117,11.492-10.509,18.528-.626,3.1-.217,6.9-2.733,8.823a6.512,6.512,0,0,1-2.452,1.073,39.584,39.584,0,1,1,73.971-26.815Z" transform="translate(88.941 -98.709)" opacity="0.1"/>
    <path id="Tracé_468" data-name="Tracé 468" d="M481.883,185.239c3.614,1.341,7.547,2.388,11.313,1.494,3.205-.753,6.614-2.86,9.526-1.277,2.554,1.366,3.065,4.7,4.673,7.074,1.775,2.554,4.852,3.984,7.789,5.108a22.129,22.129,0,0,0,6.934,1.941,7.853,7.853,0,0,0,6.512-2.464c2.273-2.745,1.583-6.857.23-10.139s-3.269-6.551-3.128-10.1c.166-4.214,3.218-7.878,3.473-12.08.332-5.325-3.971-9.973-8.849-12.131-4.367-1.928-9.36-2.464-13.356-5.108-4.559-2.988-7.061-8.172-10.432-12.463-4.9-6.244-12.578-10.9-20.43-10.011-4.839.549-9.232,3.077-14.046,4.061-7.317,1.52-15.055-.69-22.333,1.009a7.661,7.661,0,0,0-4.546,2.49c-1.788,2.4-.868,5.759-.077,8.645,1.417,5.2,2.018,11.084-.8,15.655-3.192,5.171-9.973,7.355-12.922,12.667a11.237,11.237,0,0,0-.294,10.215c1.4,2.937,4.124,5.325,4.546,8.555.294,2.324-.664,4.584-1.162,6.857s-.357,5.108,1.52,6.384,4.508.958,5.95,2.554a5.107,5.107,0,0,1,.677,4.393c-.511,2.554-1.6,4.865-2.171,7.368a9.028,9.028,0,0,0,.983,7.368c2.477,3.345,7.483,3.141,11.492,2.247a8.006,8.006,0,0,0,3.231-1.277c2.554-1.928,2.107-5.72,2.733-8.823,1.392-7.023,8.785-11.582,10.509-18.528,1.111-4.482-.575-10.777,3.767-13.739C468.833,179.544,476.444,183.234,481.883,185.239Z" transform="translate(84.667 -108.688)" fill="#464353"/>
    <path id="Tracé_469" data-name="Tracé 469" d="M463.61,533.93s40.082,25.538,41.359,35.332Z" transform="translate(96.734 4.553)" opacity="0.1"/>
    <path id="Tracé_470" data-name="Tracé 470" d="M462,549.93s45.969,22.129,43.415,29.79Z" transform="translate(96.289 8.984)" opacity="0.1"/>
    <path id="Tracé_471" data-name="Tracé 471" d="M459.61,565.26s25.972,13.625,27.67,21.707Z" transform="translate(95.627 13.229)" opacity="0.1"/>
    <path id="Tracé_472" data-name="Tracé 472" d="M468.28,589.26s17.021,14.9,20.43,11.071S468.28,589.26,468.28,589.26Z" transform="translate(98.028 19.875)" opacity="0.1"/>
    <path id="Tracé_473" data-name="Tracé 473" d="M449.61,596.6s13.267,21.273,6.883,22.55S449.61,596.6,449.61,596.6Z" transform="translate(92.858 21.907)" opacity="0.1"/>
    <path id="Tracé_474" data-name="Tracé 474" d="M407.694,300.6s-22.563,13.612-15.757,17.021S407.694,300.6,407.694,300.6Z" transform="translate(76.534 -60.056)" opacity="0.1"/>
    <path id="Tracé_475" data-name="Tracé 475" d="M407.287,261.26S384.3,303.4,394.939,300.423,407.287,261.26,407.287,261.26Z" transform="translate(76.941 -70.95)" opacity="0.1"/>
    <path id="Tracé_476" data-name="Tracé 476" d="M597.839,294.26s-14.046,16.523-11.492,25.538Z" transform="translate(130.635 -61.812)" opacity="0.1"/>
    <path id="Tracé_477" data-name="Tracé 477" d="M627.969,300.6s-21.082,18.719-17.992,20.852Z" transform="translate(137.178 -60.056)" opacity="0.1"/>
    <path id="Tracé_478" data-name="Tracé 478" d="M634.423,318.61s-2.132,12.309,1.277,12.769Z" transform="translate(143.851 -55.069)" opacity="0.1"/>
    <path id="Tracé_479" data-name="Tracé 479" d="M459.458,527.123c-5.427,7.023-5.427,19.473-7.878,24.58-1.341,2.809-4.329,7.661-6.755,11.594-.792-2.554-2.324-4.073-4.712-2.733-1.571-11.709-4.341-31.923-5.235-36-1.277-5.746,12.769-21.069,12.769-21.069s13.727,2.873,17.238,9.9S464.885,520.112,459.458,527.123Z" transform="translate(88.756 -3.873)" opacity="0.05"/>
    <path id="Tracé_480" data-name="Tracé 480" d="M414.762,415.244c-15.323,2.12-43.836,42.981-43.836,42.981s-3.741-5.44-8.938-13.037c-6.538-9.641-15.323-22.78-21.707-32.74l37.413-38.588,6.806,7.329s13.2,13.19,13.2,15.744c0,1,2.554,4.022,5.8,7.329C408.467,409.409,414.762,415.244,414.762,415.244Z" transform="translate(62.584 -39.77)" opacity="0.1"/>
    <path id="Tracé_481" data-name="Tracé 481" d="M360.617,271.458c-.536-1.085-.958-1.89-1.277-2.388l16.5,1.1,8.747,54.294C378.059,309.573,365.29,280.766,360.617,271.458Z" transform="translate(67.862 -68.787)" opacity="0.1"/>
    <path id="Tracé_482" data-name="Tracé 482" d="M401.615,406.263c-13.688,13.625-32.931,32.727-38.946,38.307-.881.83-1.481,1.366-1.737,1.545a5.388,5.388,0,0,1-1.788.779c-6.014-8.836-14.595-21.567-21.235-31.923l3.065-3.167L375.783,376l4.3,4.635s13.2,13.19,13.2,15.744C393.289,397.605,397.414,402.049,401.615,406.263Z" transform="translate(61.928 -39.178)" opacity="0.1"/>
    <path id="Tracé_483" data-name="Tracé 483" d="M392.467,270.207l-19.154-1.277s-5.108,11.913-9.36,12.769-9.794,10.637-9.794,10.637-16.4,2.988-15.68,8.1-25.206,41.64-25.206,41.64-8.517,17.519-2.554,30.288,10.215,21.286,11.492,25.959,16.4,25.117,16.268,28.947,38.639,60.014,38.639,60.014,28.513-40.861,43.836-42.993c0,0-17.021-15.744-17.021-18.3s-13.1-15.744-13.1-15.744l-16.6-17.877s-5.542-2.554,0-7.24-9.36-15.323-9.36-15.323-.434-7.661,5.108-9.794,12.769-16.166,12.769-16.166l20.009-10.215Z" transform="translate(53.812 -68.826)" fill="#464353"/>
    <path id="Tracé_484" data-name="Tracé 484" d="M317,336.843s22.984-4.673,23.406-1.7S317,336.843,317,336.843Z" transform="translate(56.138 -50.765)" opacity="0.1"/>
    <path id="Tracé_485" data-name="Tracé 485" d="M332,354.43s19.486,2.554,18.63,6.717S332,354.43,332,354.43Z" transform="translate(60.291 -45.151)" opacity="0.1"/>
    <path id="Tracé_486" data-name="Tracé 486" d="M344.61,297.76s18.732,26.521,21.286,21.031Z" transform="translate(63.783 -60.843)" opacity="0.1"/>
    <g id="Groupe_98" data-name="Groupe 98" transform="translate(504.71 26.318)" opacity="0.1">
      <path id="Tracé_487" data-name="Tracé 487" d="M433.2,145.816a28.628,28.628,0,0,0-1.149-9.155,28.368,28.368,0,0,1-.843-3.831,15.692,15.692,0,0,0,.843,6.384,32.924,32.924,0,0,1,1.149,6.6Z" transform="translate(-416.96 -132.83)"/>
      <path id="Tracé_488" data-name="Tracé 488" d="M502.913,167.86c.5-3.831,3.128-7.317,3.371-11.237a9.939,9.939,0,0,0-.077-1.954c-.5,3.958-3.243,7.47-3.4,11.492a9.548,9.548,0,0,0,.1,1.7Z" transform="translate(-397.122 -126.782)"/>
      <path id="Tracé_489" data-name="Tracé 489" d="M526.441,182.843a7.853,7.853,0,0,1-6.512,2.464A22.13,22.13,0,0,1,513,183.367c-2.937-1.188-6.014-2.554-7.789-5.108-1.622-2.375-2.145-5.708-4.673-7.074-2.911-1.558-6.385.549-9.538,1.277-3.754.894-7.661-.153-11.3-1.494-5.44-2-13.05-5.695-18.63-1.89-4.341,2.962-2.656,9.258-3.767,13.739-1.724,6.946-9.117,11.492-10.509,18.528-.626,3.1-.217,6.9-2.733,8.823a7.993,7.993,0,0,1-3.243,1.277c-4.061.894-9.066,1.1-11.492-2.247a6.832,6.832,0,0,1-1.277-3.256,8.07,8.07,0,0,0,1.277,5.81c2.477,3.345,7.483,3.141,11.492,2.247a7.994,7.994,0,0,0,3.243-1.277c2.554-1.928,2.107-5.721,2.733-8.823,1.392-7.023,8.785-11.582,10.509-18.528,1.111-4.482-.575-10.777,3.767-13.739,5.58-3.831,13.19-.115,18.63,1.89,3.614,1.341,7.547,2.388,11.3,1.494,3.218-.753,6.627-2.86,9.538-1.277,2.554,1.366,3.052,4.7,4.673,7.074,1.775,2.554,4.852,3.984,7.789,5.108a22.128,22.128,0,0,0,6.934,1.941,7.853,7.853,0,0,0,6.512-2.464,7.546,7.546,0,0,0,1.379-5.861,6.384,6.384,0,0,1-1.379,3.307Z" transform="translate(-417.853 -123.25)"/>
      <path id="Tracé_490" data-name="Tracé 490" d="M425.658,175.287c-.421-3.231-3.141-5.618-4.546-8.555a10.853,10.853,0,0,1-1-3.512,11.121,11.121,0,0,0,1,6.065c1.366,2.847,3.946,5.2,4.482,8.274a7.967,7.967,0,0,0,.064-2.273Z" transform="translate(-420.04 -124.415)"/>
      <path id="Tracé_491" data-name="Tracé 491" d="M431.832,190.381a4.852,4.852,0,0,0-.728-4.048c-1.443-1.647-4.188-1.277-5.95-2.554a4.469,4.469,0,0,1-1.673-3.039c-.281,2.081,0,4.38,1.673,5.593s4.507.958,5.95,2.554A3.486,3.486,0,0,1,431.832,190.381Z" transform="translate(-419.114 -119.564)"/>
    </g>
    <path id="Tracé_492" data-name="Tracé 492" d="M202.835,706.225s-52.813-3.192-46.594,33.825c0,0-1.277,6.538,4.7,9.513,0,0,.089-2.745,5.414-1.813a24.257,24.257,0,0,0,5.733.268,12,12,0,0,0,7.023-2.886h0s14.85-6.142,20.622-30.4c0,0,4.265-5.3,4.1-6.653l-8.938,3.831s3.052,6.385.651,11.773c0,0-.294-11.492-2-11.275-.345.064-4.635,2.235-4.635,2.235s5.248,11.2,1.277,19.345c0,0,1.507-13.8-2.924-18.541l-6.27,3.665s6.129,11.569,1.966,21.018c0,0,1.073-14.48-3.282-20.124l-5.695,4.431s5.759,11.4,2.247,19.243c0,0-.46-16.868-3.473-18.132,0,0-4.98,4.38-5.733,6.18,0,0,3.933,8.287,1.494,12.654,0,0-1.494-11.237-2.733-11.288,0,0-4.954,7.444-5.465,12.539,0,0,.217-7.585,4.265-13.254a14.978,14.978,0,0,0-7.585,3.933s.766-5.261,8.811-5.721c0,0,4.1-5.644,5.2-5.989,0,0-8.006-.664-12.846,1.481,0,0,4.265-4.954,14.3-2.707l5.618-4.584s-10.522-1.43-14.991.153c0,0,5.108-4.393,16.51-1.187l6.1-3.652s-8.938-1.941-14.327-1.277c0,0,5.644-3.039,16.115.255l4.38-1.966s-6.576-1.277-8.5-1.494-2.03-.741-2.03-.741a22.869,22.869,0,0,1,12.348,1.379S203,706.8,202.835,706.225Z" transform="translate(11.482 52.243)" fill="#e07a5f"/>
    <ellipse id="Ellipse_109" data-name="Ellipse 109" cx="37.388" cy="6.321" rx="37.388" ry="6.321" transform="translate(140.55 798.716)" fill="#02bc77" opacity="0.1"/>
  </g>
</svg>
