<svg id="Groupe_121" data-name="Groupe 121" xmlns="http://www.w3.org/2000/svg" xmlns:xlink="http://www.w3.org/1999/xlink" width="43" height="43" viewBox="0 0 43 43">
  <defs>
    <linearGradient id="linear-gradient" x1="0.5" y1="1" x2="0.5" gradientUnits="objectBoundingBox">
      <stop offset="0" stop-color="gray" stop-opacity="0.251"/>
      <stop offset="0.54" stop-color="gray" stop-opacity="0.122"/>
      <stop offset="1" stop-color="gray" stop-opacity="0.102"/>
    </linearGradient>
  </defs>
  <g id="Groupe_114" data-name="Groupe 114" opacity="0.5">
    <circle id="Ellipse_120" data-name="Ellipse 120" cx="21.5" cy="21.5" r="21.5" fill="url(#linear-gradient)"/>
  </g>
  <circle id="Ellipse_121" data-name="Ellipse 121" cx="21.228" cy="21.228" r="21.228" transform="translate(0.5 0.319)" fill="#f5f5f5"/>
  <path id="Tracé_518" data-name="Tracé 518" d="M416.953,669.85a21.126,21.126,0,0,0,11.668-3.492c-.782-4.275-3.759-4.519-3.759-4.519H408.447s-2.809.231-3.687,4.163a21.13,21.13,0,0,0,12.194,3.847Z" transform="translate(-395.206 -626.992)" fill="#e07a5f"/>
  <circle id="Ellipse_122" data-name="Ellipse 122" cx="10.246" cy="10.246" r="10.246" transform="translate(11.276 10.853)" fill="#333"/>
  <path id="Tracé_519" data-name="Tracé 519" d="M293.15,476.92h6.565v5.252a3.283,3.283,0,0,1-3.281,3.283h0a3.283,3.283,0,0,1-3.283-3.283V476.92Z" transform="translate(-274.935 -447.286)" opacity="0.1"/>
  <path id="Tracé_520" data-name="Tracé 520" d="M293.377,473h6.151a.208.208,0,0,1,.208.208v5.044a3.283,3.283,0,0,1-3.284,3.283h0a3.283,3.283,0,0,1-3.283-3.283v-5.045A.208.208,0,0,1,293.377,473Z" transform="translate(-274.954 -443.61)" fill="#fdb797"/>
  <path id="Tracé_521" data-name="Tracé 521" d="M544.34,605.9a9.449,9.449,0,0,0,6.565.018v-.808H544.34Z" transform="translate(-526.113 -573.787)" opacity="0.1"/>
  <circle id="Ellipse_123" data-name="Ellipse 123" cx="9.41" cy="9.41" r="9.41" transform="translate(12.111 13.731)" fill="#fdb797"/>
  <path id="Tracé_522" data-name="Tracé 522" d="M489.49,299.966s3.966,8.05,15.154,3.375l-2.6-4.084-4.617-1.657Z" transform="translate(-474.671 -285.384)" opacity="0.1"/>
  <path id="Tracé_523" data-name="Tracé 523" d="M489.49,298.047s3.966,8.05,15.154,3.374l-2.6-4.084-4.617-1.657Z" transform="translate(-474.671 -283.583)" fill="#333"/>
  <path id="Tracé_524" data-name="Tracé 524" d="M485.965,226.984a5.437,5.437,0,0,1,1.348-2.192c1.851-1.83,4.886-2.216,6.442-4.3a1.218,1.218,0,0,1-.559,1.718c1.491-.01,3.219-.14,4.062-1.367a2.789,2.789,0,0,1-.47,2.945,2.817,2.817,0,0,1,2.817,2.277,2.635,2.635,0,0,1-1.217,2.217,6.744,6.744,0,0,1-2.458.926C493.417,229.761,484.325,232.083,485.965,226.984Z" transform="translate(-471.181 -213.065)" fill="#333"/>
  <ellipse id="Ellipse_124" data-name="Ellipse 124" cx="0.875" cy="1.642" rx="0.875" ry="1.642" transform="translate(11.232 21.491)" fill="#fdb797"/>
  <ellipse id="Ellipse_125" data-name="Ellipse 125" cx="0.875" cy="1.642" rx="0.875" ry="1.642" transform="translate(30.056 21.491)" fill="#fdb797"/>
</svg>
